<?xml version="1.0" encoding="utf-8"?>
<!-- Generator: Adobe Illustrator 18.1.1, SVG Export Plug-In . SVG Version: 6.00 Build 0)  -->
<svg version="1.1" id="Layer_1" xmlns="http://www.w3.org/2000/svg" xmlns:xlink="http://www.w3.org/1999/xlink" x="0px" y="0px"
	 viewBox="0 0 1841 732" enable-background="new 0 0 1841 732" xml:space="preserve">
<g>
	<g>
		<path fill="#FFFFFF" d="M91.8,359.3c-2.6,0-4,1.1-4,3.4v60.9c0,2.3,1.9,4.2,4.2,4.2l119.8-0.2c2.3,0,4.2,1.9,4.2,4.2v65.9
			c0,2.3-1.9,4.2-4.2,4.2l-119.8,0.2c-2.3,0-4.2,1.9-4.2,4.2v210.8c0,2.3-1.9,4.2-4.2,4.2H17.7c-2.3,0-4.2-1.9-4.2-4.2l0-352.8
			c0-24.2,10.4-47.4,29-62.8c13.9-11.5,30.3-17.2,49.4-17.2h120.1c2.3,0,4.2,1.9,4.2,4.2v66.5c0,2.3-1.9,4.2-4.2,4.2H91.8z"/>
		<path fill="#FFFFFF" d="M269.2,284.4h57.9c4.5,0,8.2,3.7,8.2,8.2v58.5c0,4.5-3.7,8.2-8.2,8.2h-57.9c-4.5,0-8.2-3.7-8.2-8.2v-58.5
			C261,288.1,264.7,284.4,269.2,284.4z M261,713.2V400.5c0-4.5,3.7-8.2,8.2-8.2h57.9c4.5,0,8.2,3.7,8.2,8.2v312.7
			c0,4.5-3.7,8.2-8.2,8.2h-57.9C264.7,721.5,261,717.8,261,713.2z"/>
		<path fill="#FFFFFF" d="M592.5,466.6H472.1c-2.2,0-3.9,1.8-3.9,3.9v168.6c0,4.4,3.5,7.9,7.9,7.9h116.4c2.2,0,3.9,1.8,3.9,3.9v66.5
			c0,2.2-1.8,3.9-3.9,3.9H472.1c-19,0-35.5-5.7-49.4-17.2c-18.6-15.4-29-38.6-29-62.8l0-353.1c0-2.2,1.8-3.9,3.9-3.9h66.5
			c2.2,0,3.9,1.8,3.9,3.9v100c0,2.2,1.8,3.9,3.9,3.9h120.4c2.2,0,3.9,1.8,3.9,3.9v66.5C596.4,464.9,594.6,466.6,592.5,466.6z"/>
		<path fill="#FFFFFF" d="M898.3,392.3c21.6,0,40,7.7,55.4,23c15.3,15.3,23,33.8,23,55.3v172.5c0,21.6-7.7,40-23,55.3
			c-15.3,15.3-33.8,23-55.4,23H652.4c-5.5,0-10-4.5-10-10v-417c0-5.5,4.5-10,10-10h54.3c5.5,0,10,4.5,10,10v87.8c0,5.5,4.5,10,10,10
			H898.3z M902.3,633.1V480.6c0-7.7-6.3-14-14-14H730.7c-7.7,0-14,6.3-14,14v152.5c0,7.7,6.3,14,14,14h157.6
			C896.1,647.1,902.3,640.8,902.3,633.1z"/>
		<path fill="#FFFFFF" d="M1275.2,392.3c21.6,0,40,7.7,55.3,23c15.3,15.3,23,33.8,23,55.3v98.1c0,14.1-11.5,25.6-25.6,25.6h-228.2
			c-3.4,0-6.1,2.7-6.1,6.1V637c0,5.6,4.5,10.1,10.1,10.1h212.7c3.4,0,6.1,2.7,6.1,6.1v62.1c0,3.4-2.7,6.1-6.1,6.1h-218.8
			c-21.6,0-40-7.7-55.3-23c-15.3-15.3-23-33.8-23-55.3V470.6c0-21.6,7.6-40,23-55.3c15.3-15.3,33.8-23,55.3-23H1275.2z
			 M1099.7,519.4h173.4c3.4,0,6.1-2.7,6.1-6.1v-36.6c0-5.6-4.5-10.1-10.1-10.1h-165.4c-5.6,0-10.1,4.5-10.1,10.1v36.6
			C1093.6,516.7,1096.3,519.4,1099.7,519.4z"/>
		<path fill="#FFFFFF" d="M1654.9,392.3c21.6,0,40,7.7,55.3,23c15.3,15.3,23,33.8,23,55.3v96.9c0,14.8-12,26.9-26.9,26.9h-225.7
			c-4.1,0-7.4,3.3-7.4,7.4v34c0,6.3,5.1,11.4,11.4,11.4h210.1c4.1,0,7.4,3.3,7.4,7.4v59.5c0,4.1-3.3,7.4-7.4,7.4h-217.5
			c-21.6,0-40-7.7-55.3-23c-15.3-15.3-23-33.8-23-55.3V470.6c0-21.6,7.7-40,23-55.3c15.3-15.3,33.8-23,55.3-23H1654.9z
			 M1480.7,519.4h170.8c4.1,0,7.4-3.3,7.4-7.4v-34c0-6.3-5.1-11.4-11.4-11.4h-162.9c-6.3,0-11.4,5.1-11.4,11.4v34
			C1473.3,516.1,1476.6,519.4,1480.7,519.4z"/>
	</g>
	<g>
		<path fill="#FFFFFF" d="M1815,363.2c0,22.6-17.7,40.3-40.8,40.3c-22.8,0-41-17.7-41-40.3c0-22.1,18.2-39.8,41-39.8
			C1797.3,323.4,1815,341.1,1815,363.2z M1743.4,363.2c0,17.5,12.8,31.4,30.4,31.8c16.1,0.3,29.5-12.3,30.9-28.4
			c1.6-19.1-11.7-35.1-30.4-35.1C1756.5,331.4,1743.4,345.7,1743.4,363.2z M1767.9,384.1h-9.2v-39.8c3.6-0.7,8.7-1.2,15.3-1.2
			c7.5,0,10.9,1.2,13.8,2.9c2.2,1.7,3.9,4.9,3.9,8.7c0,4.4-3.4,7.8-8.3,9.2v0.5c3.9,1.5,6.1,4.4,7.3,9.7c1.2,6.1,1.9,8.5,2.9,9.9
			h-9.9c-1.2-1.5-1.9-5.1-3.1-9.7c-0.7-4.4-3.2-6.3-8.3-6.3h-4.4V384.1z M1768.2,361.5h4.4c5.1,0,9.2-1.7,9.2-5.8
			c0-3.6-2.7-6.1-8.5-6.1c-2.4,0-4.1,0.2-5.1,0.5V361.5z"/>
	</g>
	<g>
		<path fill-rule="evenodd" clip-rule="evenodd" fill="#F6921E" d="M1063.5,149.9c-6,3.2-12.4,7.9-19.8,12.4L748.7,361h380.7
			c22.6,0,43.8-6.9,64.1-21.2c5.1-3.7,10.1-8.3,15.7-13.4c0.9-0.9,1.8-1.8,3.2-3.2c12.4-13.4,20.7-28.6,25.3-46.1
			c1.4-5.1,2.8-10.6,3.2-16.1c0.5-4.6,0.5-9.7,0.5-14.3c0-25.8-6.9-48.4-21.2-67.3c-3.2-4.6-6.9-9.2-11.1-13.4
			c-6.4-6.4-13.4-11.5-20.3-16.1c-7.8-6-16.6-10.1-25.3-13.4c-11.1-3.7-22.6-5.5-34.1-5.5c-17.1,0-31.3,2.3-43.3,6.9
			C1080.1,140.2,1072.2,144.3,1063.5,149.9L1063.5,149.9z"/>
		<path fill-rule="evenodd" clip-rule="evenodd" fill="#F6C811" d="M993.4,112.9c-0.6-13.4-4.9-26.2-13.4-39
			c-1.9-2.4-3.7-5.2-5.8-7.6c-3-3.7-6.4-6.7-10-9.7c-9.1-7-19.5-11.9-31.4-14c-21.9-3.9-40.8-0.6-56.6,10c-1.8,1.5-4,2.7-5.8,4
			c-3.9,3.4-7.3,6.4-10.3,9.7c-2.1,2.1-3.6,4.2-4.9,6.1c-4,6.1-8.8,15.8-14.3,29.2l-98.9,226.8l219.5-150.1
			c8.2-5.5,14.6-11.9,19.8-20.1c0.6-0.6,0.9-1.2,1.2-2.1c2.7-4.6,4.9-9.7,6.7-15.2c0.9-3.3,2.1-7.3,2.7-11
			C993.1,124.2,993.7,118.4,993.4,112.9L993.4,112.9z"/>
	</g>
</g>
</svg>
