<?xml version="1.0" encoding="utf-8"?>
<!-- Generator: Adobe Illustrator 18.1.1, SVG Export Plug-In . SVG Version: 6.00 Build 0)  -->
<svg version="1.1" id="Layer_1" xmlns="http://www.w3.org/2000/svg" xmlns:xlink="http://www.w3.org/1999/xlink" x="0px" y="0px"
	 viewBox="0 0 2135 912" enable-background="new 0 0 2135 912" xml:space="preserve">
<g>
	<g>
		<path fill="#FFFFFF" d="M310.6,378.9c-2.6,0-4,1.1-4,3.4v60.9c0,2.3,1.9,4.2,4.2,4.2l119.8-0.2c2.3,0,4.2,1.9,4.2,4.2v65.9
			c0,2.3-1.9,4.2-4.2,4.2l-119.8,0.2c-2.3,0-4.2,1.9-4.2,4.2v210.8c0,2.3-1.9,4.2-4.2,4.2h-65.9c-2.3,0-4.2-1.9-4.2-4.2l0-352.8
			c0-24.2,10.4-47.4,29-62.8c13.9-11.5,30.3-17.2,49.4-17.2h120.1c2.3,0,4.2,1.9,4.2,4.2v66.5c0,2.3-1.9,4.2-4.2,4.2H310.6z"/>
		<path fill="#FFFFFF" d="M488,304h57.9c4.5,0,8.2,3.7,8.2,8.2v58.5c0,4.5-3.7,8.2-8.2,8.2H488c-4.5,0-8.2-3.7-8.2-8.2v-58.5
			C479.8,307.6,483.5,304,488,304z M479.8,732.8V420c0-4.5,3.7-8.2,8.2-8.2h57.9c4.5,0,8.2,3.7,8.2,8.2v312.7c0,4.5-3.7,8.2-8.2,8.2
			H488C483.5,741,479.8,737.3,479.8,732.8z"/>
		<path fill="#FFFFFF" d="M811.3,486.2H690.9c-2.2,0-3.9,1.8-3.9,3.9v168.6c0,4.4,3.5,7.9,7.9,7.9h116.4c2.2,0,3.9,1.8,3.9,3.9v66.5
			c0,2.2-1.8,3.9-3.9,3.9H690.9c-19,0-35.5-5.7-49.4-17.2c-18.6-15.4-29-38.6-29-62.8l0-353.1c0-2.2,1.8-3.9,3.9-3.9H683
			c2.2,0,3.9,1.8,3.9,3.9v100c0,2.2,1.8,3.9,3.9,3.9h120.4c2.2,0,3.9,1.8,3.9,3.9v66.5C815.2,484.4,813.5,486.2,811.3,486.2z"/>
		<path fill="#FFFFFF" d="M1117.2,411.8c21.6,0,40,7.7,55.4,23c15.3,15.3,23,33.8,23,55.3v172.5c0,21.6-7.7,40-23,55.3
			c-15.3,15.3-33.8,23-55.4,23H871.2c-5.5,0-10-4.5-10-10V314c0-5.5,4.5-10,10-10h54.3c5.5,0,10,4.5,10,10v87.8c0,5.5,4.5,10,10,10
			H1117.2z M1121.1,652.6V500.2c0-7.7-6.3-14-14-14H949.5c-7.7,0-14,6.3-14,14v152.5c0,7.7,6.3,14,14,14h157.6
			C1114.9,666.7,1121.1,660.4,1121.1,652.6z"/>
		<path fill="#FFFFFF" d="M1494,411.8c21.6,0,40,7.7,55.3,23c15.3,15.3,23,33.8,23,55.3v98.1c0,14.1-11.5,25.6-25.6,25.6h-228.2
			c-3.4,0-6.1,2.7-6.1,6.1v36.6c0,5.6,4.5,10.1,10.1,10.1h212.7c3.4,0,6.1,2.7,6.1,6.1v62.1c0,3.4-2.7,6.1-6.1,6.1h-218.8
			c-21.6,0-40-7.7-55.3-23c-15.3-15.3-23-33.8-23-55.3V490.1c0-21.6,7.6-40,23-55.3c15.3-15.3,33.8-23,55.3-23H1494z M1318.5,538.9
			h173.4c3.4,0,6.1-2.7,6.1-6.1v-36.6c0-5.6-4.5-10.1-10.1-10.1h-165.4c-5.6,0-10.1,4.5-10.1,10.1v36.6
			C1312.4,536.2,1315.1,538.9,1318.5,538.9z"/>
		<path fill="#FFFFFF" d="M1873.7,411.8c21.6,0,40,7.7,55.3,23c15.3,15.3,23,33.8,23,55.3V587c0,14.8-12,26.9-26.9,26.9h-225.7
			c-4.1,0-7.4,3.3-7.4,7.4v34c0,6.3,5.1,11.4,11.4,11.4h210.1c4.1,0,7.4,3.3,7.4,7.4v59.5c0,4.1-3.3,7.4-7.4,7.4h-217.5
			c-21.6,0-40-7.7-55.3-23c-15.3-15.3-23-33.8-23-55.3V490.1c0-21.6,7.7-40,23-55.3c15.3-15.3,33.8-23,55.3-23H1873.7z
			 M1699.5,538.9h170.8c4.1,0,7.4-3.3,7.4-7.4v-34c0-6.3-5.1-11.4-11.4-11.4h-162.9c-6.3,0-11.4,5.1-11.4,11.4v34
			C1692.1,535.6,1695.4,538.9,1699.5,538.9z"/>
	</g>
	<g>
		<path fill="#FFFFFF" d="M2033.8,382.7c0,22.6-17.7,40.3-40.8,40.3c-22.8,0-41-17.7-41-40.3c0-22.1,18.2-39.8,41-39.8
			C2016.1,343,2033.8,360.7,2033.8,382.7z M1962.3,382.7c0,17.5,12.8,31.4,30.4,31.8c16.1,0.3,29.5-12.3,30.9-28.4
			c1.6-19.1-11.7-35.1-30.4-35.1C1975.4,351,1962.3,365.3,1962.3,382.7z M1986.8,403.6h-9.2v-39.8c3.6-0.7,8.7-1.2,15.3-1.2
			c7.5,0,10.9,1.2,13.8,2.9c2.2,1.7,3.9,4.9,3.9,8.7c0,4.4-3.4,7.8-8.3,9.2v0.5c3.9,1.5,6.1,4.4,7.3,9.7c1.2,6.1,1.9,8.5,2.9,9.9
			h-9.9c-1.2-1.5-1.9-5.1-3.1-9.7c-0.7-4.4-3.2-6.3-8.3-6.3h-4.4V403.6z M1987,381h4.4c5.1,0,9.2-1.7,9.2-5.8c0-3.6-2.7-6.1-8.5-6.1
			c-2.4,0-4.1,0.2-5.1,0.5V381z"/>
	</g>
	<g>
		<path fill-rule="evenodd" clip-rule="evenodd" fill="#F6921E" d="M1282.3,169.4c-6,3.2-12.4,7.9-19.8,12.4l-295,198.7h380.7
			c22.6,0,43.8-6.9,64.1-21.2c5.1-3.7,10.1-8.3,15.7-13.4c0.9-0.9,1.8-1.8,3.2-3.2c12.4-13.4,20.7-28.6,25.3-46.1
			c1.4-5.1,2.8-10.6,3.2-16.1c0.5-4.6,0.5-9.7,0.5-14.3c0-25.8-6.9-48.4-21.2-67.3c-3.2-4.6-6.9-9.2-11.1-13.4
			c-6.4-6.4-13.4-11.5-20.3-16.1c-7.8-6-16.6-10.1-25.3-13.4c-11.1-3.7-22.6-5.5-34.1-5.5c-17.1,0-31.3,2.3-43.3,6.9
			C1298.9,159.7,1291,163.9,1282.3,169.4L1282.3,169.4z"/>
		<path fill-rule="evenodd" clip-rule="evenodd" fill="#F6C811" d="M1212.2,132.5c-0.6-13.4-4.9-26.2-13.4-39
			c-1.9-2.4-3.7-5.2-5.8-7.6c-3-3.7-6.4-6.7-10-9.7c-9.1-7-19.5-11.9-31.4-14c-21.9-3.9-40.8-0.6-56.6,10c-1.8,1.5-4,2.7-5.8,4
			c-3.9,3.4-7.3,6.4-10.3,9.7c-2.1,2.1-3.6,4.2-4.9,6.1c-4,6.1-8.8,15.8-14.3,29.2L960.8,348l219.5-150.1
			c8.2-5.5,14.6-11.9,19.8-20.1c0.6-0.6,0.9-1.2,1.2-2.1c2.7-4.6,4.9-9.7,6.7-15.2c0.9-3.3,2.1-7.3,2.7-11
			C1211.9,143.7,1212.5,138,1212.2,132.5L1212.2,132.5z"/>
	</g>
</g>
</svg>
