<?xml version="1.0" encoding="utf-8"?>
<!-- Generator: Adobe Illustrator 18.1.1, SVG Export Plug-In . SVG Version: 6.00 Build 0)  -->
<svg version="1.1" id="Layer_1" xmlns="http://www.w3.org/2000/svg" xmlns:xlink="http://www.w3.org/1999/xlink" x="0px" y="0px"
	 viewBox="0 0 50.3 64" enable-background="new 0 0 50.3 64" xml:space="preserve">
<g>
	<path fill="#231F20" d="M25.1,12c3.3,0,6-2.7,6-6c0-3.3-2.7-6-6-6c-3.3,0-6,2.7-6,6C19.1,9.3,21.8,12,25.1,12z M25.1,4
		c1.1,0,2,0.9,2,2c0,1.1-0.9,2-2,2c-1.1,0-2-0.9-2-2C23.1,4.9,24,4,25.1,4z"/>
	<path fill="#231F20" d="M48.3,53.1h-2V36c0-11.7-9.5-21.1-21.1-21.1C13.5,14.8,4,24.3,4,36v17.1H2c-1.1,0-2,0.9-2,2
		c0,1.1,0.9,2,2,2h4h10.5c0.9,3.9,4.4,6.9,8.7,6.9c4.2,0,7.7-2.9,8.7-6.9h10.5h4c1.1,0,2-0.9,2-2C50.3,54,49.4,53.1,48.3,53.1z
		 M25.1,60c-2,0-3.7-1.2-4.4-2.9h8.9C28.8,58.8,27.1,60,25.1,60z M8,50.2h21.1c0.7,0,1.3-0.6,1.3-1.3c0-0.7-0.6-1.3-1.3-1.3H8V36
		c0-9.4,7.7-17.1,17.1-17.1c9.4,0,17.1,7.7,17.1,17.1v11.5h-5.2c-0.7,0-1.3,0.6-1.3,1.3c0,0.7,0.6,1.3,1.3,1.3h5.2v2.9H8V50.2z"/>
</g>
</svg>
