<?xml version="1.0" encoding="utf-8"?>
<!-- Generator: Adobe Illustrator 18.1.1, SVG Export Plug-In . SVG Version: 6.00 Build 0)  -->
<svg version="1.1" id="Layer_1" xmlns="http://www.w3.org/2000/svg" xmlns:xlink="http://www.w3.org/1999/xlink" x="0px" y="0px"
	 viewBox="0 0 37.8 27.4" enable-background="new 0 0 37.8 27.4" xml:space="preserve">
<g>
	<path fill="#231F20" d="M35.2,0H2.4C1.1,0,0,1.1,0,2.4V25c0,1.3,1.1,2.4,2.4,2.4h32.8c1.3,0,2.4-1.1,2.4-2.4V2.4
		C37.5,1.1,36.5,0,35.2,0z M2.4,2.4h32.8v3.9H2.4V2.4z M35.2,25H2.4V8.6h32.8V25z"/>
	<path fill="#231F20" d="M5.9,13.4h21.6c0.4,0,0.8-0.4,0.8-0.8c0-0.4-0.4-0.8-0.8-0.8H5.9c-0.4,0-0.8,0.4-0.8,0.8
		C5.1,13,5.4,13.4,5.9,13.4z"/>
	<circle fill="#231F20" cx="31.7" cy="12.6" r="1.5"/>
	<path fill="#231F20" d="M5.8,22.5c0.4,0,0.8-0.4,0.8-0.8v-3.1h20.9c0.4,0,0.8-0.4,0.8-0.8S27.9,17,27.5,17H5.8
		C5.3,17,5,17.4,5,17.8v3.9C5,22.1,5.3,22.5,5.8,22.5z"/>
	<path fill="#231F20" d="M31.7,17c-0.4,0-0.8,0.4-0.8,0.8v3.1H9.8c-0.4,0-0.8,0.4-0.8,0.8c0,0.4,0.4,0.8,0.8,0.8h22
		c0.4,0,0.8-0.4,0.8-0.8v-3.9C32.5,17.4,32.2,17,31.7,17z"/>
</g>
</svg>
