<?xml version="1.0" encoding="utf-8"?>
<!-- Generator: Adobe Illustrator 18.1.1, SVG Export Plug-In . SVG Version: 6.00 Build 0)  -->
<svg version="1.1" id="Layer_1" xmlns="http://www.w3.org/2000/svg" xmlns:xlink="http://www.w3.org/1999/xlink" x="0px" y="0px"
	 viewBox="0 0 50.3 38.9" enable-background="new 0 0 50.3 38.9" xml:space="preserve">
<g>
	<path fill="#231F20" d="M6.2,19.3c-3.3-4.9-3.2-9,0.3-11.9C9.4,4.8,14,4.9,16.9,7.5c3.3,3,3.3,7.3,0,11.7c0.9,0.7,1.7,1.3,2.7,2
		c1.6-1,3.2-1.9,4.8-2.9C19,12,18.6,6.8,23.1,2.6C27.1-1,33.2-0.9,36.9,3c4.2,4.4,3.6,9.8-1.7,15.3c1.2,0.8,2.5,1.5,3.8,2.3
		c-0.6,0.8-1,1.3-1.5,2c-4.9-3.1-9.9-3.6-14.9-0.3c-3.5,2.3-5.2,5.7-5.3,10.3c1.9,0,3.7,0,5.5,0c2,0,4.1,0.1,6.1,0
		c1.7-0.1,2.9,0.4,3.3,2.4c-0.4,0.1-0.9,0.2-1.3,0.2c-4.3,0-8.6,0-12.9,0c-1.5,0-2.6-0.5-3.2-2c-0.2-0.4-1.1-0.8-1.6-0.8
		c-3.3-0.1-6.5,0-9.8,0c-2.6,0-3.6-1-3.4-3.6c0.3-3.4,1.8-6.1,4.5-8.2C5.1,20.1,5.7,19.7,6.2,19.3z M37,10c0.1-4-3-7.3-7-7.4
		c-4-0.1-7.4,3.2-7.4,7.2c0,3.9,3.2,7.2,7.2,7.3C33.8,17.1,37,14,37,10z M17.6,23.3c-2.2-2.4-6-3.2-9.4-1.9
		c-3.4,1.4-5.6,4.6-5.4,8.3c3.8,0,7.6,0,11.5,0c0.3,0,0.8-0.4,0.9-0.8C16.1,27,16.8,25.2,17.6,23.3z M11.6,18.5
		c2.8,0,5.2-2.4,5.3-5.2c0-2.9-2.3-5.2-5.2-5.2c-2.9,0-5.3,2.3-5.3,5.2C6.3,16.1,8.7,18.5,11.6,18.5z"/>
	<path fill="#231F20" d="M40.6,29.3c0-1.6-0.2-2.9,0.1-4.1c0.2-0.8,1-1.8,1.7-1.9c1.2-0.3,1.9,0.7,1.9,1.9c0,1.3,0,2.6,0,4.2
		c1.4,0,2.7,0,3.9,0c1.2,0,2.1,0.5,2.1,1.8c0,1.3-0.9,1.8-2.1,1.9c-1.2,0.1-2.4,0-3.9,0c0,1.4,0,2.7,0,3.9c0,1.2-0.6,2.2-1.8,2
		c-0.7-0.1-1.5-1.1-1.7-1.9c-0.4-1.2,0.2-3-0.5-3.7c-0.7-0.7-2.4-0.3-3.7-0.4c-1.2-0.1-2.2-0.7-1.9-1.9c0.2-0.7,1.2-1.5,2-1.6
		C37.7,29.1,38.9,29.3,40.6,29.3z"/>
</g>
</svg>
