<?xml version="1.0" encoding="utf-8"?>
<!-- Generator: Adobe Illustrator 18.1.1, SVG Export Plug-In . SVG Version: 6.00 Build 0)  -->
<svg version="1.1" id="Layer_1" xmlns="http://www.w3.org/2000/svg" xmlns:xlink="http://www.w3.org/1999/xlink" x="0px" y="0px"
	 viewBox="0 0 50.3 38.9" enable-background="new 0 0 50.3 38.9" xml:space="preserve">
<path fill="#231F20" d="M25.1,1.6c6.6,0,13.1,0,19.7,0c3.3,0,5.3,1.9,5.3,5.3c0,7.9,0,15.8,0,23.8c0,3.2-1.9,5.2-5.2,5.2
	c-13.3,0-26.5,0-39.8,0c-3.2,0-5.2-2-5.2-5.2c0-8,0-16,0-24c0-3.1,2-5.1,5.1-5.1C11.8,1.6,18.5,1.6,25.1,1.6z M6,32.5
	c0,0.1,0.1,0.1,0.1,0.2c13.1,0,26.1,0,39.4,0c-0.4-0.3-0.6-0.5-0.9-0.7c-3.2-2.2-6.3-4.4-9.5-6.7c-0.9-0.6-1.8-1.3-2.7-1.9
	c-0.8-0.6-1-1.2-0.6-1.7c0.4-0.6,1-0.6,1.8,0c0.1,0.1,0.1,0.1,0.2,0.2c4,2.8,8.1,5.7,12.1,8.5c0.3,0.2,0.6,0.3,0.9,0.5
	c0-8.1,0-16,0-24.1c-0.4,0.3-0.7,0.5-1,0.7c-6.2,4.8-12.3,9.7-18.5,14.5c-1.5,1.2-2.2,1.2-3.8,0C17.1,16.9,10.6,11.8,4,6.7
	C3.8,6.5,3.6,6.4,3.2,6.1c0,8.6,0,17,0,25.6c0.4-0.3,0.7-0.4,0.9-0.6c3.3-2.3,6.7-4.7,10-7c1.3-0.9,2.5-1.8,3.9-2.7
	c0.3-0.2,0.8-0.2,1.2-0.1c0.3,0.1,0.6,0.7,0.5,0.9c-0.1,0.4-0.4,0.8-0.8,1c-2.9,2.1-5.9,4.1-8.8,6.2C8.7,30.6,7.3,31.6,6,32.5z
	 M45.7,5.1c0-0.1-0.1-0.2-0.1-0.2c-13.4,0-26.8,0-40.3,0C5.6,5.1,5.8,5.3,6,5.5c6.2,4.8,12.4,9.7,18.6,14.5c0.8,0.6,1.3,0.7,2,0
	c4.7-3.8,9.5-7.4,14.2-11.2C42.4,7.6,44,6.4,45.7,5.1z"/>
</svg>
