<?xml version="1.0" encoding="utf-8"?>
<!-- Generator: Adobe Illustrator 18.1.1, SVG Export Plug-In . SVG Version: 6.00 Build 0)  -->
<svg version="1.1" id="Layer_1" xmlns="http://www.w3.org/2000/svg" xmlns:xlink="http://www.w3.org/1999/xlink" x="0px" y="0px"
	 viewBox="0 0 27.3 27.4" enable-background="new 0 0 27.3 27.4" xml:space="preserve">
<g>
	<path fill="#231F20" d="M24.3,3c-1.9-1.9-4.5-3-7.3-3c-2.8,0-5.3,1.1-7.3,3c-1.9,1.9-3,4.5-3,7.3c0,1.9,0.5,3.7,1.4,5.2l-7.9,7.9
		C0.1,23.5,0,23.8,0,24s0.1,0.4,0.2,0.6l2.5,2.5c0.2,0.2,0.4,0.3,0.6,0.3c0.2,0,0.4-0.1,0.6-0.3l7.9-7.9c1.6,0.9,3.3,1.4,5.2,1.4
		c2.8,0,5.3-1.1,7.3-3c1.9-1.9,3-4.5,3-7.3C27.3,7.5,26.2,5,24.3,3z M3.3,25.3L2.1,24l7.1-7.1c0.2,0.2,0.4,0.4,0.6,0.7
		c0.2,0.2,0.4,0.4,0.7,0.6L3.3,25.3z M23.1,16.4c-1.6,1.6-3.8,2.5-6.1,2.5c-2.3,0-4.5-0.9-6.1-2.5c-1.6-1.6-2.5-3.8-2.5-6.1
		c0-2.3,0.9-4.5,2.5-6.1c1.6-1.6,3.8-2.5,6.1-2.5c2.3,0,4.5,0.9,6.1,2.5s2.5,3.8,2.5,6.1C25.6,12.6,24.7,14.8,23.1,16.4z"/>
	<path fill="#231F20" d="M23.7,11.3c-0.3-0.1-0.6,0.1-0.7,0.4c-0.3,1.1-0.8,2.1-1.7,3c-1.2,1.2-2.7,1.8-4.4,1.8
		c-1.7,0-3.2-0.6-4.4-1.8c-0.2-0.2-0.4-0.4-0.6-0.7c-0.2-0.3-0.5-0.3-0.8-0.1c-0.3,0.2-0.3,0.5-0.1,0.8c0.2,0.3,0.4,0.5,0.7,0.8
		c1.4,1.4,3.2,2.2,5.2,2.2c2,0,3.8-0.8,5.2-2.2c1-1,1.6-2.2,2-3.5C24.2,11.7,24.1,11.4,23.7,11.3z"/>
	<path fill="#231F20" d="M11.1,12.2c-0.7-2.2-0.1-4.6,1.5-6.3c1.2-1.2,2.7-1.8,4.4-1.8c1.7,0,3.2,0.6,4.4,1.8
		c0.8,0.8,1.4,1.8,1.6,2.9c0.1,0.3,0.4,0.5,0.7,0.4c0.3-0.1,0.5-0.4,0.4-0.7c-0.3-1.3-1-2.5-1.9-3.4C20.8,3.7,19,2.9,17,2.9
		c-2,0-3.8,0.8-5.2,2.2c-2,2-2.7,4.8-1.8,7.4c0.1,0.2,0.3,0.4,0.5,0.4c0.1,0,0.1,0,0.2,0C11,12.8,11.2,12.5,11.1,12.2z"/>
	<path fill="#231F20" d="M18.1,5.4c-0.3-0.1-0.6,0.1-0.7,0.4c-0.1,0.3,0.1,0.6,0.4,0.7c0.7,0.2,1.4,0.5,1.9,1
		c0.1,0.1,0.3,0.2,0.4,0.2c0.1,0,0.3-0.1,0.4-0.2c0.2-0.2,0.2-0.6,0-0.8C19.9,6.1,19,5.6,18.1,5.4z"/>
	<path fill="#231F20" d="M20.9,9.9c0,0.3,0.3,0.5,0.6,0.5c0,0,0,0,0.1,0c0.3,0,0.5-0.3,0.5-0.6c0-0.4-0.1-0.8-0.2-1.1
		c-0.1-0.3-0.4-0.5-0.7-0.4c-0.3,0.1-0.5,0.4-0.4,0.7C20.8,9.3,20.8,9.6,20.9,9.9z"/>
</g>
</svg>
