<?xml version="1.0" encoding="utf-8"?>
<!-- Generator: Adobe Illustrator 18.1.1, SVG Export Plug-In . SVG Version: 6.00 Build 0)  -->
<svg version="1.1" id="Layer_1" xmlns="http://www.w3.org/2000/svg" xmlns:xlink="http://www.w3.org/1999/xlink" x="0px" y="0px"
	 viewBox="0 0 21.5 27.4" enable-background="new 0 0 21.5 27.4" xml:space="preserve">
<g>
	<path fill="#231F20" d="M19.7,1.7h-1.6V0.6c0-0.3-0.3-0.6-0.6-0.6C17.2,0,17,0.3,17,0.6v1.1h-1.6V0.6c0-0.3-0.3-0.6-0.6-0.6
		s-0.6,0.3-0.6,0.6v1.1h-1.6V0.6c0-0.3-0.3-0.6-0.6-0.6c-0.3,0-0.6,0.3-0.6,0.6v1.1H9.9V0.6C9.9,0.3,9.7,0,9.4,0
		C9,0,8.8,0.3,8.8,0.6v1.1H7.2V0.6C7.2,0.3,7,0,6.6,0S6.1,0.3,6.1,0.6v1.1H4.5V0.6C4.5,0.3,4.2,0,3.9,0C3.6,0,3.3,0.3,3.3,0.6v1.1
		H1.7C0.8,1.7,0,2.5,0,3.4v22.1c0,0.9,0.8,1.7,1.7,1.7h18c0.9,0,1.7-0.8,1.7-1.7V3.4C21.5,2.5,20.7,1.7,19.7,1.7z M1.7,25.5V7.6H14
		c0.3,0,0.6-0.3,0.6-0.6S14.3,6.5,14,6.5H1.7V3.4h1.6v1.2c0,0.3,0.3,0.6,0.6,0.6c0.3,0,0.6-0.3,0.6-0.6V3.4h1.6v1.2
		c0,0.3,0.3,0.6,0.6,0.6s0.6-0.3,0.6-0.6V3.4h1.6v1.2c0,0.3,0.3,0.6,0.6,0.6c0.3,0,0.6-0.3,0.6-0.6V3.4h1.6v1.2
		c0,0.3,0.3,0.6,0.6,0.6c0.3,0,0.6-0.3,0.6-0.6V3.4h1.6v1.2c0,0.3,0.3,0.6,0.6,0.6s0.6-0.3,0.6-0.6V3.4H17v1.2
		c0,0.3,0.3,0.6,0.6,0.6c0.3,0,0.6-0.3,0.6-0.6V3.4h1.6v3.1h-2.6c-0.3,0-0.6,0.3-0.6,0.6s0.3,0.6,0.6,0.6h2.6v17.9H1.7z"/>
	<path fill="#231F20" d="M16.9,11.4h-7c-0.3,0-0.6,0.3-0.6,0.6c0,0.3,0.3,0.6,0.6,0.6h7c0.3,0,0.6-0.3,0.6-0.6
		C17.5,11.7,17.2,11.4,16.9,11.4z"/>
	<path fill="#231F20" d="M6.7,11.4H4.6C4.2,11.4,4,11.7,4,12c0,0.3,0.3,0.6,0.6,0.6h2.2c0.3,0,0.6-0.3,0.6-0.6
		C7.3,11.7,7.1,11.4,6.7,11.4z"/>
	<path fill="#231F20" d="M16.9,14.4h-7c-0.3,0-0.6,0.3-0.6,0.6c0,0.3,0.3,0.6,0.6,0.6h7c0.3,0,0.6-0.3,0.6-0.6
		C17.5,14.7,17.2,14.4,16.9,14.4z"/>
	<path fill="#231F20" d="M6.7,14.4H4.6C4.2,14.4,4,14.7,4,15c0,0.3,0.3,0.6,0.6,0.6h2.2c0.3,0,0.6-0.3,0.6-0.6
		C7.3,14.7,7.1,14.4,6.7,14.4z"/>
	<path fill="#231F20" d="M16.9,17.5h-7c-0.3,0-0.6,0.3-0.6,0.6c0,0.3,0.3,0.6,0.6,0.6h7c0.3,0,0.6-0.3,0.6-0.6
		C17.5,17.8,17.2,17.5,16.9,17.5z"/>
	<path fill="#231F20" d="M6.7,17.5H4.6c-0.3,0-0.6,0.3-0.6,0.6c0,0.3,0.3,0.6,0.6,0.6h2.2c0.3,0,0.6-0.3,0.6-0.6
		C7.3,17.8,7.1,17.5,6.7,17.5z"/>
	<path fill="#231F20" d="M16.9,20.9h-7c-0.3,0-0.6,0.3-0.6,0.6c0,0.3,0.3,0.6,0.6,0.6h7c0.3,0,0.6-0.3,0.6-0.6
		C17.5,21.1,17.2,20.9,16.9,20.9z"/>
	<path fill="#231F20" d="M6.7,20.9H4.6c-0.3,0-0.6,0.3-0.6,0.6C4,21.7,4.2,22,4.6,22h2.2c0.3,0,0.6-0.3,0.6-0.6
		C7.3,21.1,7.1,20.9,6.7,20.9z"/>
</g>
</svg>
