<?xml version="1.0" encoding="utf-8"?>
<!-- Generator: Adobe Illustrator 18.1.1, SVG Export Plug-In . SVG Version: 6.00 Build 0)  -->
<svg version="1.1" id="Layer_1" xmlns="http://www.w3.org/2000/svg" xmlns:xlink="http://www.w3.org/1999/xlink" x="0px" y="0px"
	 viewBox="0 0 216 110" enable-background="new 0 0 216 110" xml:space="preserve">
<g>
	<g>
		<path fill="#32393F" d="M12.3,50.2c-0.3,0-0.5,0.1-0.5,0.4v7.1c0,0.3,0.2,0.5,0.5,0.5l13.9,0c0.3,0,0.5,0.2,0.5,0.5v7.6
			c0,0.3-0.2,0.5-0.5,0.5l-13.9,0c-0.3,0-0.5,0.2-0.5,0.5v24.5c0,0.3-0.2,0.5-0.5,0.5H3.7c-0.3,0-0.5-0.2-0.5-0.5l0-40.9
			c0-2.8,1.2-5.5,3.4-7.3c1.6-1.3,3.5-2,5.7-2h13.9c0.3,0,0.5,0.2,0.5,0.5v7.7c0,0.3-0.2,0.5-0.5,0.5H12.3z"/>
		<path fill="#32393F" d="M32.9,41.5h6.7c0.5,0,1,0.4,1,1v6.8c0,0.5-0.4,1-1,1h-6.7c-0.5,0-1-0.4-1-1v-6.8
			C32,42,32.4,41.5,32.9,41.5z M32,91.3V55c0-0.5,0.4-1,1-1h6.7c0.5,0,1,0.4,1,1v36.3c0,0.5-0.4,1-1,1h-6.7
			C32.4,92.2,32,91.8,32,91.3z"/>
		<path fill="#32393F" d="M70.4,62.7h-14c-0.3,0-0.5,0.2-0.5,0.5v19.6c0,0.5,0.4,0.9,0.9,0.9h13.5c0.3,0,0.5,0.2,0.5,0.5v7.7
			c0,0.3-0.2,0.5-0.5,0.5h-14c-2.2,0-4.1-0.7-5.7-2c-2.2-1.8-3.4-4.5-3.4-7.3l0-41c0-0.3,0.2-0.5,0.5-0.5h7.7c0.3,0,0.5,0.2,0.5,0.5
			v11.6c0,0.3,0.2,0.5,0.5,0.5h14c0.3,0,0.5,0.2,0.5,0.5v7.7C70.9,62.5,70.7,62.7,70.4,62.7z"/>
		<path fill="#32393F" d="M105.9,54c2.5,0,4.6,0.9,6.4,2.7c1.8,1.8,2.7,3.9,2.7,6.4v20c0,2.5-0.9,4.6-2.7,6.4
			c-1.8,1.8-3.9,2.7-6.4,2.7H77.4c-0.6,0-1.2-0.5-1.2-1.2V42.7c0-0.6,0.5-1.2,1.2-1.2h6.3c0.6,0,1.2,0.5,1.2,1.2v10.2
			c0,0.6,0.5,1.2,1.2,1.2H105.9z M106.4,82V64.3c0-0.9-0.7-1.6-1.6-1.6H86.5c-0.9,0-1.6,0.7-1.6,1.6V82c0,0.9,0.7,1.6,1.6,1.6h18.3
			C105.6,83.6,106.4,82.9,106.4,82z"/>
		<path fill="#32393F" d="M149.6,54c2.5,0,4.6,0.9,6.4,2.7c1.8,1.8,2.7,3.9,2.7,6.4v11.4c0,1.6-1.3,3-3,3h-26.5
			c-0.4,0-0.7,0.3-0.7,0.7v4.2c0,0.6,0.5,1.2,1.2,1.2h24.7c0.4,0,0.7,0.3,0.7,0.7v7.2c0,0.4-0.3,0.7-0.7,0.7H129
			c-2.5,0-4.6-0.9-6.4-2.7c-1.8-1.8-2.7-3.9-2.7-6.4v-20c0-2.5,0.9-4.6,2.7-6.4c1.8-1.8,3.9-2.7,6.4-2.7H149.6z M129.3,68.8h20.1
			c0.4,0,0.7-0.3,0.7-0.7v-4.2c0-0.6-0.5-1.2-1.2-1.2h-19.2c-0.6,0-1.2,0.5-1.2,1.2v4.2C128.6,68.5,128.9,68.8,129.3,68.8z"/>
		<path fill="#32393F" d="M193.7,54c2.5,0,4.6,0.9,6.4,2.7c1.8,1.8,2.7,3.9,2.7,6.4v11.2c0,1.7-1.4,3.1-3.1,3.1h-26.2
			c-0.5,0-0.9,0.4-0.9,0.9v3.9c0,0.7,0.6,1.3,1.3,1.3h24.4c0.5,0,0.9,0.4,0.9,0.9v6.9c0,0.5-0.4,0.9-0.9,0.9h-25.2
			c-2.5,0-4.6-0.9-6.4-2.7c-1.8-1.8-2.7-3.9-2.7-6.4v-20c0-2.5,0.9-4.6,2.7-6.4c1.8-1.8,3.9-2.7,6.4-2.7H193.7z M173.5,68.8h19.8
			c0.5,0,0.9-0.4,0.9-0.9V64c0-0.7-0.6-1.3-1.3-1.3h-18.9c-0.7,0-1.3,0.6-1.3,1.3v3.9C172.6,68.4,173,68.8,173.5,68.8z"/>
	</g>
	<g>
		<path fill="#32393F" d="M212.2,50.7c0,2.6-2.1,4.7-4.7,4.7c-2.6,0-4.8-2.1-4.8-4.7c0-2.6,2.1-4.6,4.8-4.6
			C210.2,46.1,212.2,48.1,212.2,50.7z M203.9,50.7c0,2,1.5,3.6,3.5,3.7c1.9,0,3.4-1.4,3.6-3.3c0.2-2.2-1.4-4.1-3.5-4.1
			C205.5,47,203.9,48.7,203.9,50.7z M206.8,53.1h-1.1v-4.6c0.4-0.1,1-0.1,1.8-0.1c0.9,0,1.3,0.1,1.6,0.3c0.3,0.2,0.5,0.6,0.5,1
			c0,0.5-0.4,0.9-1,1.1v0.1c0.5,0.2,0.7,0.5,0.8,1.1c0.1,0.7,0.2,1,0.3,1.2h-1.2c-0.1-0.2-0.2-0.6-0.4-1.1c-0.1-0.5-0.4-0.7-1-0.7
			h-0.5V53.1z M206.8,50.5h0.5c0.6,0,1.1-0.2,1.1-0.7c0-0.4-0.3-0.7-1-0.7c-0.3,0-0.5,0-0.6,0.1V50.5z"/>
	</g>
	<g>
		<path fill-rule="evenodd" clip-rule="evenodd" fill="#F69321" d="M125.1,25.9c-0.7,0.4-1.4,0.9-2.3,1.4l-34.2,23h44.2
			c2.6,0,5.1-0.8,7.4-2.5c0.6-0.4,1.2-1,1.8-1.6c0.1-0.1,0.2-0.2,0.4-0.4c1.4-1.6,2.4-3.3,2.9-5.3c0.2-0.6,0.3-1.2,0.4-1.9
			c0.1-0.5,0.1-1.1,0.1-1.7c0-3-0.8-5.6-2.5-7.8c-0.4-0.5-0.8-1.1-1.3-1.6c-0.7-0.7-1.5-1.3-2.4-1.9c-0.9-0.7-1.9-1.2-2.9-1.5
			c-1.3-0.4-2.6-0.6-4-0.6c-2,0-3.6,0.3-5,0.8C127,24.8,126.1,25.3,125.1,25.9L125.1,25.9z"/>
		<path fill-rule="evenodd" clip-rule="evenodd" fill="#F6C817" d="M116.9,21.6c-0.1-1.6-0.6-3-1.6-4.5c-0.2-0.3-0.4-0.6-0.7-0.9
			c-0.4-0.4-0.7-0.8-1.2-1.1c-1.1-0.8-2.3-1.4-3.6-1.6c-2.5-0.5-4.7-0.1-6.6,1.2c-0.2,0.2-0.5,0.3-0.7,0.5c-0.5,0.4-0.8,0.7-1.2,1.1
			c-0.2,0.2-0.4,0.5-0.6,0.7c-0.5,0.7-1,1.8-1.7,3.4L87.8,46.6l25.5-17.4c1-0.6,1.7-1.4,2.3-2.3c0.1-0.1,0.1-0.1,0.1-0.2
			c0.3-0.5,0.6-1.1,0.8-1.8c0.1-0.4,0.2-0.8,0.3-1.3C116.9,23,117,22.3,116.9,21.6L116.9,21.6z"/>
	</g>
</g>
</svg>
