<?xml version="1.0" encoding="utf-8"?>
<!-- Generator: Adobe Illustrator 18.1.1, SVG Export Plug-In . SVG Version: 6.00 Build 0)  -->
<svg version="1.1" id="Layer_1" xmlns="http://www.w3.org/2000/svg" xmlns:xlink="http://www.w3.org/1999/xlink" x="0px" y="0px"
	 viewBox="0 0 30.1 45.3" enable-background="new 0 0 30.1 45.3" xml:space="preserve">
<g>
	<path fill="#FFFFFF" d="M-107.6,2.8c3.5-1.9,6.4-3.9,9.7-5.1c5.5-2,9.2,0,11.3,5.4c0.6,1.6,1.1,3.3,1.8,5.5c0.6-1,1.1-1.7,1.5-2.4
		c5.1-9.4,10.2-18.9,17-27.3c6.6-8.2,14.4-10.6,24.4-7.6c0.4,0.1,0.7,0.3,1.4,0.6C-61.8-11.8-75.3,10.2-88.6,33
		C-94.2,22.4-96.6,10.3-107.6,2.8z"/>
</g>
<g>
	<path fill="#FFFFFF" d="M-56.7,67.5c0-2.8,0-5.8,0-9c-10.2-1.5-18.1,2.3-24.9,9.4c-0.9-4.8,2.4-13.4,6.8-17.9
		c3.4-3.4,7.1-6,18.1-6.9c0-2.5,0-4.9,0-7.6c5.6,5.7,10.9,11,15.9,16.1C-45.8,56.6-51.2,62-56.7,67.5z"/>
</g>
<g>
	<g>
		<path fill="#1B85B9" d="M143.5,7.6c-9.4,0-18.8,0-28.2,0c-4.2,0-6.3-2-6.3-6.3c0-18.7,0-37.5,0-56.2c0-4.3,2.1-6.4,6.5-6.4
			c16.8,0,33.6,0,50.5,0c1.1,0,2.5,0.6,3.3,1.3c3,2.8,6.7,5.4,8.3,8.8c1.4,3.2,0.5,7.5,0.5,11.3c0,13.5,0,27,0,40.5
			c0,5-1.9,6.9-7,6.9C161.9,7.6,152.7,7.6,143.5,7.6z M162-57.4c0,4.9,0,9.6,0,14.4c0,4.5-2,6.5-6.5,6.6c-8,0-16,0-24,0
			c-4.5,0-6.5-2-6.5-6.5c0-4.8,0-9.6,0-14.7c-2.7,0-5.1,0-7.5,0c-4.9,0-4.9,0-4.9,4.8c0,16.8,0,33.6,0,50.5c0,7.3-0.6,6.5,6.6,6.6
			c1.7,0,2.3-0.5,2.3-2.3c-0.1-6.6,0-13.2-0.1-19.7c0-1.9,0.8-2.7,2.7-2.7c12.9,0,25.8,0,38.7,0c2,0,2.8,0.8,2.8,2.8
			c-0.1,6.3,0,12.7,0,19c0,0.9,0.1,1.8,0.1,2.9c1.8,0,3.4,0,5,0c3.4,0,3.7-0.3,3.7-3.7c0-14-0.3-28,0.1-42c0.2-5.8-1-10.4-5.7-14.1
			C166.7-57.4,164.8-58.2,162-57.4z M161.9-16.9c-12.4,0-24.5,0-36.7,0c0,7.1,0,13.9,0,20.7c12.3,0,24.4,0,36.7,0
			C161.9-3.1,161.9-9.8,161.9-16.9z M128.5-57.6c0,3.7,0,7.3,0,10.9c0,7.2-0.9,6.6,6.5,6.6c3.6,0,7.3,0,10.9,0c0-6.1,0-11.7,0-17.5
			C140.1-57.6,134.4-57.6,128.5-57.6z M158.5-57.7c-2.7,0-5.1-0.1-7.5,0.1c-0.5,0-1.2,1-1.2,1.6c-0.1,4.7-0.1,9.5,0,14.2
			c0,0.6,0.6,1.6,1,1.6c2.1,0.1,4.2,0.2,6.2-0.1c0.6-0.1,1.5-1.4,1.5-2.1C158.5-47.3,158.5-52.3,158.5-57.7z"/>
		<path fill="#1E85B9" d="M135.8-61.3c10,0,20.1,0,30.1,0.1c1.1,0,2.5,0.6,3.3,1.3c3,2.8,6.7,5.4,8.3,8.8c1.4,3.2,0.5,7.5,0.5,11.3
			c0,13.5,0,27,0,40.5c0,5-1.9,6.9-7,6.9c-3.7,0-7.4,0-11.1,0c-5.4,0-10.9,0-16.3,0c-0.1,0-0.2,0-0.3,0c-5.3,0-10.7,0-16,0
			c-4,0-7.9,0-11.9,0c-4.2,0-6.3-2-6.3-6.3c0-18.7,0-37.5,0-56.2c0-4.3,2.1-6.4,6.5-6.4C122.3-61.3,129.1-61.3,135.8-61.3
			 M153.8-40.1c1,0,2-0.1,3-0.2c0.6-0.1,1.5-1.4,1.5-2.1c0.1-5,0.1-9.9,0.1-15.3c-1.4,0-2.7,0-4,0c-1.2,0-2.3,0-3.5,0.1
			c-0.5,0-1.2,1-1.2,1.6c-0.1,4.7-0.1,9.5,0,14.2c0,0.6,0.6,1.6,1,1.6C151.7-40.1,152.8-40.1,153.8-40.1 M119.3,4.1
			c1.7,0,2.2-0.6,2.2-2.3c-0.1-6.6,0-13.2-0.1-19.7c0-1.9,0.7-2.7,2.6-2.7c0,0,0,0,0,0c6.4,0,12.9,0,19.3,0c6.5,0,13,0,19.5,0
			c0,0,0,0,0,0c2,0,2.8,0.8,2.8,2.8c-0.1,6.3,0,12.7,0,19c0,0.9,0.1,1.8,0.1,2.9c1.1,0,2.2,0,3.2,0c0.6,0,1.2,0,1.8,0
			c3.4,0,3.7-0.3,3.7-3.7c0-14-0.3-28,0.1-42c0.2-5.8-1-10.4-5.7-14.1c-1.6-1.2-3-2-4.8-2c-0.6,0-1.3,0.1-2,0.3c0,4.9,0,9.6,0,14.4
			c0,4.5-2,6.5-6.5,6.6c-4,0-8,0-12,0c-4,0-8,0-12,0c-4.5,0-6.5-2-6.5-6.5c0-4.8,0-9.6,0-14.7c-1.7,0-3.2,0-4.8,0
			c-0.9,0-1.8,0-2.7,0c-4.9,0-4.9,0-4.9,4.8c0,16.8,0,33.6,0,50.5c0,7.3-0.6,6.5,6.6,6.6C119.2,4.1,119.3,4.1,119.3,4.1 M132.5-40.1
			c0.7,0,1.5,0,2.5,0c0,0,0,0,0.1,0c1.4,0,2.7,0,4.1,0c2.3,0,4.5,0,6.8,0c0-6.1,0-11.7,0-17.5c-5.8,0-11.5,0-17.4,0
			c0,3.7,0,7.3,0,10.9C128.6-40.5,127.9-40.1,132.5-40.1 M125.2,3.9c12.3,0,24.4,0,36.7,0c0-6.9,0-13.7,0-20.7
			c-12.4,0-24.5,0-36.7,0C125.2-9.8,125.2-3,125.2,3.9 M135.8-63.3c-6.8,0-13.6,0-20.3,0c-5.5,0-8.5,3-8.5,8.4c0,17.7,0,36.1,0,56.2
			c0,5.3,2.9,8.3,8.3,8.3c4,0,8,0,11.9,0l8,0l8,0h0.3l7.7,0l8.6,0l11.1,0c6.2,0,9-2.7,9-8.9l0-5c0-11.6,0-23.7,0-35.5
			c0-1,0.1-2.1,0.2-3.3c0.2-3,0.4-6.2-0.8-8.9c-1.3-3-4-5.3-6.5-7.5c-0.8-0.7-1.5-1.3-2.2-2c-1.2-1.1-3-1.9-4.6-1.9
			C156.9-63.3,147.4-63.3,135.8-63.3L135.8-63.3z M151.7-55.7c0.8,0,1.6-0.1,2.7-0.1c0.6,0,1.2,0,1.9,0c0,0,0.1,0,0.1,0
			c0,0.7,0,1.3,0,2c0,3.9,0,7.5-0.1,11.2c0,0.1-0.1,0.2-0.2,0.3c-0.7,0.1-1.5,0.1-2.4,0.1c-0.6,0-1.3,0-2.1-0.1
			C151.6-47,151.7-51.5,151.7-55.7L151.7-55.7z M114.7-55.7c0.5-0.1,1.7-0.1,2.8-0.1l2.7,0l2.3,0l0.5,0l0,2.6c0,3.4,0,6.8,0,10.1
			c0,5.7,2.9,8.5,8.5,8.5c4,0,8,0,12,0c4,0,8,0,12,0c5.6,0,8.5-2.9,8.5-8.6c0-3.3,0-6.6,0-9.9l0-2.7c1.1,0,2.1,0.4,3.5,1.6
			c3.7,2.9,5.1,6.4,5,12.4c-0.3,9.9-0.2,20-0.2,29.7c0,4,0,8.2,0,12.3c0,0.3,0,1.1-0.1,1.6C171.9,2,171,2,170.7,2
			c-0.6,0-1.2,0-1.8,0l-1.3,0c0-0.3,0-0.6,0-0.9l0-3.9c0-4.9,0-10.1,0-15.1c0-1.6-0.4-2.8-1.2-3.6c-0.8-0.8-2-1.2-3.6-1.2
			c-6.5,0-13,0-19.5,0c-6.4,0-12.8,0-19.3,0c-1.5,0-2.7,0.4-3.5,1.2c-0.8,0.8-1.2,2-1.2,3.5c0,3,0,6.1,0,9.1c0,3.5,0,7.1,0,10.7
			c0,0.1,0,0.2,0,0.2c0,0-0.1,0-0.2,0l-0.1,0c-0.8,0-1.4,0-2,0c-1,0-2,0-2.5-0.1c-0.1-0.6-0.1-1.7-0.1-2.9c0-0.5,0-1,0-1.6l0-25.9
			l0-24.5C114.6-54,114.6-55.1,114.7-55.7L114.7-55.7z M130.5-55.6h13.4v13.5l-1.4,0l-3.4,0l-4.1,0l-0.1,0c-0.5,0-1,0-1.5,0
			c-0.4,0-0.7,0-1,0c-0.4,0-1.4,0-1.9-0.1c-0.1-0.5,0-1.5,0-2.4c0-0.6,0-1.3,0-2.2c0-2.4,0-4.9,0-7.4
			C130.5-54.6,130.5-55.1,130.5-55.6L130.5-55.6z M127.2-14.9h32.7V1.9h-32.7V-14.9L127.2-14.9z"/>
	</g>
</g>
<g>
	<path fill="#FFFFFF" d="M25,132c3.2-3.3,6.3-6.6,9.6-9.8c2.2-2.2,4.5-2.4,6.4-0.6c1.9,1.9,1.8,4.2-0.6,6.5
		c-5.5,5.5-10.9,11-16.4,16.4c-2.9,2.8-4.9,2.8-7.7,0c-5.6-5.5-11.1-11.1-16.6-16.6c-2.1-2.1-2.2-4.6-0.4-6.4
		c1.7-1.7,4.2-1.5,6.2,0.5c3.3,3.3,6.6,6.7,10.4,10.6c0.1-1.7,0.1-2.6,0.1-3.4c0-12.9,0-25.8,0-38.7c0-0.8-0.1-1.7,0.1-2.5
		c0.5-2.1,1.9-3.4,4-3.4c2.1,0,3.6,1.2,4,3.4c0.2,0.9,0.1,1.8,0.1,2.7c0,12.7,0,25.5,0,38.2c0,0.9,0,1.8,0,2.7
		C24.5,131.7,24.8,131.9,25,132z"/>
	<path fill="#FFFFFF" d="M20,162.7c-6.7,0-13.5,0-20.2,0c-11.5-0.1-19.6-8.2-19.7-19.7c0-1.3,0-2.7,0-4c0.1-2.5,1.7-4.3,3.8-4.4
		c2.2-0.1,3.9,1.8,4,4.5c0.1,1.7,0,3.3,0,5c0.2,5.5,4.2,9.9,9.7,10.7c1.2,0.2,2.5,0.2,3.7,0.2c12.7,0,25.3,0,38,0
		c8.4,0,12.8-4.4,12.9-12.8c0-1.4,0-2.8,0.1-4.2c0.3-2.1,1.7-3.3,3.8-3.3c1.9,0,3.3,1.2,3.8,3.1c2.2,9.3-2.5,19.5-11.3,23.3
		c-2.5,1.1-5.5,1.5-8.2,1.6C33.6,162.8,26.8,162.7,20,162.7z"/>
</g>
<g>
	<path fill="#1B85B9" d="M30.1,4.1c0,12.4,0,24.9,0,37.3c0,3.6-2.3,5-5.4,3.2c-2.5-1.5-5.1-2.9-7.6-4.4c-1.4-0.8-2.6-0.8-4,0
		c-2.6,1.6-5.2,3.1-7.8,4.6c-2.8,1.6-5.2,0.2-5.2-3c0-6.3,0-12.7,0-19C0,16.4,0,10.2,0,4c0-2.9,1.1-4,4-4h22C29,0,30.1,1.1,30.1,4.1
		z"/>
</g>
<g>
	<path fill="#1B85B9" d="M-156.3,134.5c0-10.9,0-21.8,0-32.7c0-5.1,1.9-7.1,7.1-7.1c12.9,0,25.8,0,38.7,0c5.1,0,7.1,2,7.1,7.1
		c0,21.9,0,43.8,0,65.7c0,6.4-4,8.7-9.6,5.6c-4.5-2.6-8.9-5.1-13.4-7.8c-2.4-1.4-4.6-1.4-7,0c-4.6,2.7-9.2,5.4-13.8,8
		c-4.9,2.8-9.1,0.3-9.1-5.3C-156.3,156.8-156.3,145.6-156.3,134.5z M-108.4,169.9c0-1.5,0-2.3,0-3.2c0-21.4,0-42.8,0.1-64.2
		c0-2.4-0.8-2.9-3-2.9c-12.3,0.1-24.7,0.1-37,0c-2.4,0-3.1,0.6-3.1,3c0.1,21.3,0.1,42.6,0.1,64c0,0.9,0,1.8,0,3
		c1.1-0.5,1.7-0.8,2.3-1.1c3.9-2.2,7.9-4.3,11.6-6.8c5-3.3,9.8-3.3,14.9,0C-118.1,164.5-113.5,166.9-108.4,169.9z"/>
	<path fill="#1B85B9" d="M-108.4,169.9c-5.1-2.9-9.7-5.3-14.1-8.2c-5.1-3.3-9.8-3.3-14.9,0c-3.7,2.5-7.7,4.6-11.6,6.8
		c-0.6,0.4-1.3,0.6-2.3,1.1c0-1.3,0-2.2,0-3c0-21.3,0-42.6-0.1-64c0-2.4,0.7-3.1,3.1-3c12.3,0.1,24.7,0.1,37,0c2.2,0,3,0.5,3,2.9
		c-0.1,21.4-0.1,42.8-0.1,64.2C-108.4,167.5-108.4,168.3-108.4,169.9z"/>
</g>
</svg>
